<svg width="431" height="370" viewBox="0 0 431 370" fill="none" xmlns="http://www.w3.org/2000/svg">
<path d="M143.804 205.556V226.111H123.26V205.556H143.804Z" fill="#2DBA4F"/>
<path d="M164.347 205.556V226.111H143.804V205.556H164.347Z" fill="#2DBA4F"/>
<path d="M184.89 205.556V226.111H164.347V205.556H184.89Z" fill="#2DBA4F"/>
<path d="M205.434 205.556V226.111H184.89V205.556H205.434Z" fill="#2DBA4F"/>
<path d="M225.977 205.556V226.111H205.434V205.556H225.977Z" fill="#2DBA4F"/>
<path d="M246.52 205.556V226.111H225.977V205.556H246.52Z" fill="#2DBA4F"/>
<path d="M267.064 205.556V226.111H246.52V205.556H267.064Z" fill="#2DBA4F"/>
<path d="M287.607 205.556V226.111H267.064V205.556H287.607Z" fill="#2DBA4F"/>
<path d="M308.151 205.556V226.111H287.607V205.556H308.151Z" fill="#2DBA4F"/>
<path d="M328.694 205.556V226.111H308.151V205.556H328.694Z" fill="#2DBA4F"/>
<path d="M349.237 205.556V226.111H328.694V205.556H349.237Z" fill="#2DBA4F"/>
<path d="M41.0868 226.111H61.6301V246.667H41.0868V226.111Z" fill="#2DBA4F"/>
<path d="M41.0868 246.667H61.6301V267.222H41.0868V246.667Z" fill="#2DBA4F"/>
<path d="M61.6301 226.111H82.1735V246.667H61.6301V226.111Z" fill="#2DBA4F"/>
<path d="M61.6301 246.667H82.1735V267.222H61.6301V246.667Z" fill="#2DBA4F"/>
<path d="M123.26 226.111H143.804V246.667H123.26V226.111Z" fill="#2DBA4F"/>
<path d="M123.26 246.667H143.804V267.222H123.26V246.667Z" fill="#2DBA4F"/>
<path d="M143.804 226.111H164.347V246.667H143.804V226.111Z" fill="#2DBA4F"/>
<path d="M143.804 246.667H164.347V267.222H143.804V246.667Z" fill="#2DBA4F"/>
<path d="M205.434 226.111H225.977V246.667H205.434V226.111Z" fill="#2DBA4F"/>
<path d="M205.434 246.667H225.977V267.222H205.434V246.667Z" fill="#2DBA4F"/>
<path d="M225.977 226.111H246.52V246.667H225.977V226.111Z" fill="#2DBA4F"/>
<path d="M225.977 246.667H246.52V267.222H225.977V246.667Z" fill="#2DBA4F"/>
<path d="M410.457 185H431V205.556H410.457V185Z" fill="#2DBA4F"/>
<path d="M410.457 164.444H431V185H410.457V164.444Z" fill="#2DBA4F"/>
<path d="M410.457 143.889H431V164.444H410.457V143.889Z" fill="#2DBA4F"/>
<path d="M410.457 123.333H431V143.889H410.457V123.333Z" fill="#2DBA4F"/>
<path d="M410.457 102.778H431V123.333H410.457V102.778Z" fill="#2DBA4F"/>
<path d="M410.457 82.2222H431V102.778H410.457V82.2222Z" fill="#2DBA4F"/>
<path d="M410.457 61.6667H431V82.2222H410.457V61.6667Z" fill="#2DBA4F"/>
<path d="M410.457 41.1111H431V61.6667H410.457V41.1111Z" fill="#2DBA4F"/>
<path d="M143.804 20.5556V41.1111L123.26 41.1111V20.5556L143.804 20.5556Z" fill="#2DBA4F"/>
<path d="M164.347 20.5556V41.1111H143.804V20.5556H164.347Z" fill="#2DBA4F"/>
<path d="M184.89 20.5556V41.1111H164.347V20.5556H184.89Z" fill="#2DBA4F"/>
<path d="M205.434 20.5556V41.1111H184.89V20.5556H205.434Z" fill="#2DBA4F"/>
<path d="M225.977 20.5556V41.1111H205.434V20.5556H225.977Z" fill="#2DBA4F"/>
<path d="M246.52 20.5556V41.1111H225.977V20.5556H246.52Z" fill="#2DBA4F"/>
<path d="M267.064 20.5556V41.1111H246.52V20.5556H267.064Z" fill="#2DBA4F"/>
<path d="M287.607 20.5556V41.1111H267.064V20.5556H287.607Z" fill="#2DBA4F"/>
<path d="M308.151 20.5556V41.1111H287.607V20.5556H308.151Z" fill="#2DBA4F"/>
<path d="M328.694 20.5556V41.1111H308.151V20.5556H328.694Z" fill="#2DBA4F"/>
<path d="M349.237 20.5556V41.1111H328.694V20.5556H349.237Z" fill="#2DBA4F"/>
<path d="M369.781 20.5556V41.1111H349.237V20.5556H369.781Z" fill="#2DBA4F"/>
<path d="M390.324 20.5556V41.1111H369.781V20.5556H390.324Z" fill="#2DBA4F"/>
<path d="M410.867 20.5556V41.1111H390.324V20.5556H410.867Z" fill="#2DBA4F"/>
<path d="M369.781 226.111V246.667H349.237V226.111H369.781Z" fill="#2DBA4F"/>
<path d="M431 205.556V226.111H410.457V205.556H431Z" fill="#2DBA4F"/>
<path d="M431 226.111V246.667H410.457V226.111H431Z" fill="#2DBA4F"/>
<path d="M431 246.667V267.222H410.457V246.667H431Z" fill="#2DBA4F"/>
<path d="M390.324 226.111V246.667H369.781V226.111H390.324Z" fill="#2DBA4F"/>
<path d="M410.867 246.667V267.222H390.324V246.667H410.867Z" fill="#2DBA4F"/>
<path d="M102.717 185H123.26V205.556H102.717V185Z" fill="#2DBA4F"/>
<path d="M102.717 164.444H123.26V185H102.717V164.444Z" fill="#2DBA4F"/>
<path d="M102.717 143.889H123.26V164.444H102.717V143.889Z" fill="#2DBA4F"/>
<path d="M102.717 123.333H123.26V143.889H102.717V123.333Z" fill="#2DBA4F"/>
<path d="M102.717 102.778H123.26V123.333H102.717V102.778Z" fill="#2DBA4F"/>
<path d="M102.717 82.2222H123.26V102.778H102.717V82.2222Z" fill="#2DBA4F"/>
<path d="M102.717 61.6667H123.26V82.2222H102.717V61.6667Z" fill="#2DBA4F"/>
<path d="M102.717 41.1111L123.26 41.1111V61.6667H102.717V41.1111Z" fill="#2DBA4F"/>
<path d="M20.5434 349.444H41.0868V370H20.5434V349.444Z" fill="#2DBA4F"/>
<path d="M287.607 287.778H308.151V308.333H287.607V287.778Z" fill="#2DBA4F"/>
<path d="M287.607 267.222H308.151V287.778H287.607V267.222Z" fill="#2DBA4F"/>
<path d="M0 246.667H20.5434V267.222H0V246.667Z" fill="#2DBA4F"/>
<path d="M0 226.111H20.5434V246.667H0V226.111Z" fill="#2DBA4F"/>
<path d="M0 287.778H20.5434V308.333H0V287.778Z" fill="#2DBA4F"/>
<path d="M0 308.333H20.5434V328.889H0V308.333Z" fill="#2DBA4F"/>
<path d="M0 328.889H20.5434V349.444H0V328.889Z" fill="#2DBA4F"/>
<path d="M0 349.444H20.5434V370H0V349.444Z" fill="#2DBA4F"/>
<path d="M0 267.222H20.5434V287.778H0V267.222Z" fill="#2DBA4F"/>
<path d="M0 205.556H20.5434V226.111H0V205.556Z" fill="#2DBA4F"/>
<path d="M0 185H20.5434V205.556H0V185Z" fill="#2DBA4F"/>
<path d="M287.607 246.667H308.151V267.222H287.607V246.667Z" fill="#2DBA4F"/>
<path d="M287.607 226.111H308.151V246.667H287.607V226.111Z" fill="#2DBA4F"/>
<path d="M82.1735 185V164.444H102.717V185H82.1735Z" fill="#2DBA4F"/>
<path d="M61.6301 185V164.444H82.1735V185H61.6301Z" fill="#2DBA4F"/>
<path d="M41.0868 164.444V185H20.5434V164.444H41.0868Z" fill="#2DBA4F"/>
<path d="M61.6301 164.444V185H41.0868V164.444H61.6301Z" fill="#2DBA4F"/>
<path d="M123.26 328.889V308.333H143.804V328.889H123.26Z" fill="#2DBA4F"/>
<path d="M102.717 328.889V308.333H123.26V328.889H102.717Z" fill="#2DBA4F"/>
<path d="M82.1735 328.889V308.333H102.717V328.889H82.1735Z" fill="#2DBA4F"/>
<path d="M61.6301 349.444V328.889H82.1735V349.444H61.6301Z" fill="#2DBA4F"/>
<path d="M41.0868 349.444V328.889H61.6301V349.444H41.0868Z" fill="#2DBA4F"/>
<path d="M246.52 328.889V308.333H267.064V328.889H246.52Z" fill="#2DBA4F"/>
<path d="M267.064 328.889V308.333H287.607V328.889H267.064Z" fill="#2DBA4F"/>
<path d="M225.977 328.889V308.333H246.52V328.889H225.977Z" fill="#2DBA4F"/>
<path d="M205.434 328.889V308.333H225.977V328.889H205.434Z" fill="#2DBA4F"/>
<path d="M184.89 328.889V308.333H205.434V328.889H184.89Z" fill="#2DBA4F"/>
<path d="M164.347 308.333V328.889H143.804V308.333H164.347Z" fill="#2DBA4F"/>
<path d="M184.89 308.333V328.889H164.347V308.333H184.89Z" fill="#2DBA4F"/>
<path d="M164.347 123.333H184.89V143.889H164.347V123.333Z" fill="#2DBA4F"/>
<path d="M184.89 123.333H205.434V143.889H184.89V123.333Z" fill="#2DBA4F"/>
<path d="M184.89 102.778H205.434V123.333H184.89V102.778Z" fill="#2DBA4F"/>
<path d="M164.347 102.778H184.89V123.333H164.347V102.778Z" fill="#2DBA4F"/>
<path d="M246.52 123.333H267.064V143.889H246.52V123.333Z" fill="#2DBA4F"/>
<path d="M267.064 123.333H287.607V143.889H267.064V123.333Z" fill="#2DBA4F"/>
<path d="M267.064 102.778H287.607V123.333H267.064V102.778Z" fill="#2DBA4F"/>
<path d="M246.52 102.778H267.064V123.333H246.52V102.778Z" fill="#2DBA4F"/>
<path d="M328.694 123.333H349.237V143.889H328.694V123.333Z" fill="#2DBA4F"/>
<path d="M349.237 123.333H369.781V143.889H349.237V123.333Z" fill="#2DBA4F"/>
<path d="M349.237 102.778H369.781V123.333H349.237V102.778Z" fill="#2DBA4F"/>
<path d="M328.694 102.778H349.237V123.333H328.694V102.778Z" fill="#2DBA4F"/>
<path d="M143.804 185V205.556H123.26V185H143.804Z" fill="#15181B"/>
<path d="M164.347 185V205.556H143.804V185H164.347Z" fill="#15181B"/>
<path d="M184.89 185V205.556H164.347V185H184.89Z" fill="#15181B"/>
<path d="M205.434 185V205.556H184.89V185H205.434Z" fill="#15181B"/>
<path d="M225.977 185V205.556H205.434V185H225.977Z" fill="#15181B"/>
<path d="M246.52 185V205.556H225.977V185H246.52Z" fill="#15181B"/>
<path d="M267.064 185V205.556H246.52V185H267.064Z" fill="#15181B"/>
<path d="M287.607 185V205.556H267.064V185H287.607Z" fill="#15181B"/>
<path d="M308.151 185V205.556H287.607V185H308.151Z" fill="#15181B"/>
<path d="M328.694 185V205.556H308.151V185H328.694Z" fill="#15181B"/>
<path d="M349.237 185V205.556H328.694V185H349.237Z" fill="#15181B"/>
<path d="M41.0868 205.556H61.6301V226.111H41.0868V205.556Z" fill="#15181B"/>
<path d="M41.0868 226.111H61.6301V246.667H41.0868V226.111Z" fill="#15181B"/>
<path d="M61.6301 205.556H82.1735V226.111H61.6301V205.556Z" fill="#15181B"/>
<path d="M61.6301 226.111H82.1735V246.667H61.6301V226.111Z" fill="#15181B"/>
<path d="M123.26 205.556H143.804V226.111H123.26V205.556Z" fill="#15181B"/>
<path d="M123.26 226.111H143.804V246.667H123.26V226.111Z" fill="#15181B"/>
<path d="M143.804 205.556H164.347V226.111H143.804V205.556Z" fill="#15181B"/>
<path d="M143.804 226.111H164.347V246.667H143.804V226.111Z" fill="#15181B"/>
<path d="M205.434 205.556H225.977V226.111H205.434V205.556Z" fill="#15181B"/>
<path d="M205.434 226.111H225.977V246.667H205.434V226.111Z" fill="#15181B"/>
<path d="M225.977 205.556H246.52V226.111H225.977V205.556Z" fill="#15181B"/>
<path d="M225.977 226.111H246.52V246.667H225.977V226.111Z" fill="#15181B"/>
<path d="M410.457 164.444H431V185H410.457V164.444Z" fill="#15181B"/>
<path d="M410.457 143.889H431V164.444H410.457V143.889Z" fill="#15181B"/>
<path d="M410.457 123.333H431V143.889H410.457V123.333Z" fill="#15181B"/>
<path d="M410.457 102.778H431V123.333H410.457V102.778Z" fill="#15181B"/>
<path d="M410.457 82.2222H431V102.778H410.457V82.2222Z" fill="#15181B"/>
<path d="M410.457 61.6667H431V82.2222H410.457V61.6667Z" fill="#15181B"/>
<path d="M410.457 41.1111H431V61.6667H410.457V41.1111Z" fill="#15181B"/>
<path d="M410.457 20.5556H431V41.1111H410.457V20.5556Z" fill="#15181B"/>
<path d="M143.804 8.98511e-07V20.5556L123.26 20.5556V0L143.804 8.98511e-07Z" fill="#15181B"/>
<path d="M164.347 8.98511e-07V20.5556H143.804V8.98511e-07H164.347Z" fill="#15181B"/>
<path d="M184.89 8.98511e-07V20.5556H164.347V8.98511e-07H184.89Z" fill="#15181B"/>
<path d="M205.434 8.98511e-07V20.5556H184.89V8.98511e-07H205.434Z" fill="#15181B"/>
<path d="M225.977 8.98511e-07V20.5556H205.434V8.98511e-07H225.977Z" fill="#15181B"/>
<path d="M246.52 8.98511e-07V20.5556H225.977V8.98511e-07H246.52Z" fill="#15181B"/>
<path d="M267.064 8.98511e-07V20.5556H246.52V8.98511e-07H267.064Z" fill="#15181B"/>
<path d="M287.607 8.98511e-07V20.5556H267.064V8.98511e-07H287.607Z" fill="#15181B"/>
<path d="M308.151 8.98511e-07V20.5556H287.607V8.98511e-07H308.151Z" fill="#15181B"/>
<path d="M328.694 8.98511e-07V20.5556H308.151V8.98511e-07H328.694Z" fill="#15181B"/>
<path d="M349.237 8.98511e-07V20.5556H328.694V8.98511e-07H349.237Z" fill="#15181B"/>
<path d="M369.781 8.98511e-07V20.5556H349.237V8.98511e-07H369.781Z" fill="#15181B"/>
<path d="M390.324 8.98511e-07V20.5556H369.781V8.98511e-07H390.324Z" fill="#15181B"/>
<path d="M410.867 8.98511e-07V20.5556H390.324V8.98511e-07H410.867Z" fill="#15181B"/>
<path d="M369.781 205.556V226.111H349.237V205.556H369.781Z" fill="#15181B"/>
<path d="M431 185V205.556H410.457V185H431Z" fill="#15181B"/>
<path d="M431 205.556V226.111H410.457V205.556H431Z" fill="#15181B"/>
<path d="M431 226.111V246.667H410.457V226.111H431Z" fill="#15181B"/>
<path d="M390.324 205.556V226.111H369.781V205.556H390.324Z" fill="#15181B"/>
<path d="M410.867 226.111V246.667H390.324V226.111H410.867Z" fill="#15181B"/>
<path d="M102.717 164.444H123.26V185H102.717V164.444Z" fill="#15181B"/>
<path d="M102.717 143.889H123.26V164.444H102.717V143.889Z" fill="#15181B"/>
<path d="M102.717 123.333H123.26V143.889H102.717V123.333Z" fill="#15181B"/>
<path d="M102.717 102.778H123.26V123.333H102.717V102.778Z" fill="#15181B"/>
<path d="M102.717 82.2222H123.26V102.778H102.717V82.2222Z" fill="#15181B"/>
<path d="M102.717 61.6667H123.26V82.2222H102.717V61.6667Z" fill="#15181B"/>
<path d="M102.717 41.1111H123.26V61.6667H102.717V41.1111Z" fill="#15181B"/>
<path d="M102.717 20.5556L123.26 20.5556V41.1111H102.717V20.5556Z" fill="#15181B"/>
<path d="M20.5434 328.889H41.0868V349.444H20.5434V328.889Z" fill="#15181B"/>
<path d="M287.607 267.222H308.151V287.778H287.607V267.222Z" fill="#15181B"/>
<path d="M287.607 246.667H308.151V267.222H287.607V246.667Z" fill="#15181B"/>
<path d="M0 226.111H20.5434V246.667H0V226.111Z" fill="#15181B"/>
<path d="M0 205.556H20.5434V226.111H0V205.556Z" fill="#15181B"/>
<path d="M0 267.222H20.5434V287.778H0V267.222Z" fill="#15181B"/>
<path d="M0 287.778H20.5434V308.333H0V287.778Z" fill="#15181B"/>
<path d="M0 308.333H20.5434V328.889H0V308.333Z" fill="#15181B"/>
<path d="M0 328.889H20.5434V349.444H0V328.889Z" fill="#15181B"/>
<path d="M0 246.667H20.5434V267.222H0V246.667Z" fill="#15181B"/>
<path d="M0 185H20.5434V205.556H0V185Z" fill="#15181B"/>
<path d="M0 164.444H20.5434V185H0V164.444Z" fill="#15181B"/>
<path d="M287.607 226.111H308.151V246.667H287.607V226.111Z" fill="#15181B"/>
<path d="M287.607 205.556H308.151V226.111H287.607V205.556Z" fill="#15181B"/>
<path d="M82.1735 164.444V143.889H102.717V164.444H82.1735Z" fill="#15181B"/>
<path d="M61.6301 164.444V143.889H82.1735V164.444H61.6301Z" fill="#15181B"/>
<path d="M41.0868 143.889V164.444H20.5434V143.889H41.0868Z" fill="#15181B"/>
<path d="M61.6301 143.889V164.444H41.0868V143.889H61.6301Z" fill="#15181B"/>
<path d="M123.26 308.333V287.778H143.804V308.333H123.26Z" fill="#15181B"/>
<path d="M102.717 308.333V287.778H123.26V308.333H102.717Z" fill="#15181B"/>
<path d="M82.1735 308.333V287.778H102.717V308.333H82.1735Z" fill="#15181B"/>
<path d="M61.6301 328.889V308.333H82.1735V328.889H61.6301Z" fill="#15181B"/>
<path d="M41.0868 328.889V308.333H61.6301V328.889H41.0868Z" fill="#15181B"/>
<path d="M246.52 308.333V287.778H267.064V308.333H246.52Z" fill="#15181B"/>
<path d="M267.064 308.333V287.778H287.607V308.333H267.064Z" fill="#15181B"/>
<path d="M225.977 308.333V287.778H246.52V308.333H225.977Z" fill="#15181B"/>
<path d="M205.434 308.333V287.778H225.977V308.333H205.434Z" fill="#15181B"/>
<path d="M184.89 308.333V287.778H205.434V308.333H184.89Z" fill="#15181B"/>
<path d="M164.347 287.778V308.333H143.804V287.778H164.347Z" fill="#15181B"/>
<path d="M184.89 287.778V308.333H164.347V287.778H184.89Z" fill="#15181B"/>
<path d="M164.347 102.778H184.89V123.333H164.347V102.778Z" fill="#15181B"/>
<path d="M184.89 102.778H205.434V123.333H184.89V102.778Z" fill="#15181B"/>
<path d="M184.89 82.2222H205.434V102.778H184.89V82.2222Z" fill="#15181B"/>
<path d="M164.347 82.2222H184.89V102.778H164.347V82.2222Z" fill="#15181B"/>
<path d="M246.52 102.778H267.064V123.333H246.52V102.778Z" fill="#15181B"/>
<path d="M267.064 102.778H287.607V123.333H267.064V102.778Z" fill="#15181B"/>
<path d="M267.064 82.2222H287.607V102.778H267.064V82.2222Z" fill="#15181B"/>
<path d="M246.52 82.2222H267.064V102.778H246.52V82.2222Z" fill="#15181B"/>
<path d="M328.694 102.778H349.237V123.333H328.694V102.778Z" fill="#15181B"/>
<path d="M349.237 102.778H369.781V123.333H349.237V102.778Z" fill="#15181B"/>
<path d="M349.237 82.2222H369.781V102.778H349.237V82.2222Z" fill="#15181B"/>
<path d="M328.694 82.2222H349.237V102.778H328.694V82.2222Z" fill="#15181B"/>
</svg>
